<mxfile host="app.diagrams.net" agent="Mozilla/5.0 (Windows NT 10.0; Win64; x64) AppleWebKit/537.36 (KHTML, like Gecko) Chrome/133.0.0.0 Safari/537.36" version="26.0.16">
  <diagram name="Página-1" id="Hdc81AM2Uc06f9mj2QX-">
    <mxGraphModel dx="1434" dy="746" grid="1" gridSize="10" guides="1" tooltips="1" connect="1" arrows="1" fold="1" page="1" pageScale="1" pageWidth="2910" pageHeight="1030" math="0" shadow="0">
      <root>
        <mxCell id="0" />
        <mxCell id="1" parent="0" />
        <mxCell id="HDhrtGJA4EhIXhscm4DT-1" value="&lt;font style=&quot;vertical-align: inherit;&quot;&gt;&lt;font style=&quot;vertical-align: inherit;&quot;&gt;Permitir cargue de RIPS de pruebas COVID&lt;/font&gt;&lt;/font&gt;" style="swimlane;childLayout=stackLayout;resizeParent=1;resizeParentMax=0;horizontal=1;startSize=20;horizontalStack=0;html=1;" parent="1" vertex="1">
          <mxGeometry x="280" y="80" width="1810" height="640" as="geometry" />
        </mxCell>
        <mxCell id="HDhrtGJA4EhIXhscm4DT-2" value="&lt;font style=&quot;vertical-align: inherit;&quot;&gt;&lt;font style=&quot;vertical-align: inherit;&quot;&gt;OASIS&lt;/font&gt;&lt;/font&gt;" style="swimlane;startSize=20;horizontal=0;html=1;" parent="HDhrtGJA4EhIXhscm4DT-1" vertex="1">
          <mxGeometry y="20" width="1810" height="620" as="geometry" />
        </mxCell>
        <mxCell id="HDhrtGJA4EhIXhscm4DT-44" style="edgeStyle=orthogonalEdgeStyle;rounded=0;orthogonalLoop=1;jettySize=auto;html=1;" parent="HDhrtGJA4EhIXhscm4DT-2" source="HDhrtGJA4EhIXhscm4DT-25" target="HDhrtGJA4EhIXhscm4DT-41" edge="1">
          <mxGeometry relative="1" as="geometry">
            <mxPoint x="910" y="330" as="targetPoint" />
            <Array as="points">
              <mxPoint x="735" y="330" />
            </Array>
          </mxGeometry>
        </mxCell>
        <mxCell id="HDhrtGJA4EhIXhscm4DT-45" value="NO" style="edgeLabel;html=1;align=center;verticalAlign=middle;resizable=0;points=[];" parent="HDhrtGJA4EhIXhscm4DT-44" vertex="1" connectable="0">
          <mxGeometry x="0.4" relative="1" as="geometry">
            <mxPoint y="-6" as="offset" />
          </mxGeometry>
        </mxCell>
        <mxCell id="HDhrtGJA4EhIXhscm4DT-37" style="edgeStyle=orthogonalEdgeStyle;rounded=0;orthogonalLoop=1;jettySize=auto;html=1;dashed=1;" parent="HDhrtGJA4EhIXhscm4DT-2" source="HDhrtGJA4EhIXhscm4DT-36" target="HDhrtGJA4EhIXhscm4DT-25" edge="1">
          <mxGeometry relative="1" as="geometry" />
        </mxCell>
        <mxCell id="HDhrtGJA4EhIXhscm4DT-5" value="Inicio" style="points=[[0.145,0.145,0],[0.5,0,0],[0.855,0.145,0],[1,0.5,0],[0.855,0.855,0],[0.5,1,0],[0.145,0.855,0],[0,0.5,0]];shape=mxgraph.bpmn.event;html=1;verticalLabelPosition=bottom;labelBackgroundColor=#ffffff;verticalAlign=top;align=center;perimeter=ellipsePerimeter;outlineConnect=0;aspect=fixed;outline=standard;symbol=general;fillColor=#f8cecc;strokeColor=#b85450;" parent="HDhrtGJA4EhIXhscm4DT-2" vertex="1">
          <mxGeometry x="50" y="145" width="50" height="50" as="geometry" />
        </mxCell>
        <mxCell id="HDhrtGJA4EhIXhscm4DT-7" value="Ingresar a módulo ERIP" style="points=[[0.25,0,0],[0.5,0,0],[0.75,0,0],[1,0.25,0],[1,0.5,0],[1,0.75,0],[0.75,1,0],[0.5,1,0],[0.25,1,0],[0,0.75,0],[0,0.5,0],[0,0.25,0]];shape=mxgraph.bpmn.task2;whiteSpace=wrap;rectStyle=rounded;size=10;html=1;container=1;expand=0;collapsible=0;taskMarker=user;fillColor=#ffe6cc;strokeColor=#d79b00;" parent="HDhrtGJA4EhIXhscm4DT-2" vertex="1">
          <mxGeometry x="140" y="130" width="120" height="80" as="geometry" />
        </mxCell>
        <mxCell id="HDhrtGJA4EhIXhscm4DT-6" style="edgeStyle=orthogonalEdgeStyle;rounded=0;orthogonalLoop=1;jettySize=auto;html=1;" parent="HDhrtGJA4EhIXhscm4DT-2" source="HDhrtGJA4EhIXhscm4DT-5" target="HDhrtGJA4EhIXhscm4DT-7" edge="1">
          <mxGeometry relative="1" as="geometry">
            <mxPoint x="140" y="170" as="targetPoint" />
          </mxGeometry>
        </mxCell>
        <mxCell id="HDhrtGJA4EhIXhscm4DT-11" style="edgeStyle=orthogonalEdgeStyle;rounded=0;orthogonalLoop=1;jettySize=auto;html=1;" parent="HDhrtGJA4EhIXhscm4DT-2" source="HDhrtGJA4EhIXhscm4DT-9" target="HDhrtGJA4EhIXhscm4DT-10" edge="1">
          <mxGeometry relative="1" as="geometry" />
        </mxCell>
        <mxCell id="HDhrtGJA4EhIXhscm4DT-9" value="Escoger Facturación electrónica, clase PBS" style="points=[[0.25,0,0],[0.5,0,0],[0.75,0,0],[1,0.25,0],[1,0.5,0],[1,0.75,0],[0.75,1,0],[0.5,1,0],[0.25,1,0],[0,0.75,0],[0,0.5,0],[0,0.25,0]];shape=mxgraph.bpmn.task2;whiteSpace=wrap;rectStyle=rounded;size=10;html=1;container=1;expand=0;collapsible=0;taskMarker=user;fillColor=#ffe6cc;strokeColor=#d79b00;" parent="HDhrtGJA4EhIXhscm4DT-2" vertex="1">
          <mxGeometry x="300" y="130" width="120" height="80" as="geometry" />
        </mxCell>
        <mxCell id="HDhrtGJA4EhIXhscm4DT-8" style="edgeStyle=orthogonalEdgeStyle;rounded=0;orthogonalLoop=1;jettySize=auto;html=1;" parent="HDhrtGJA4EhIXhscm4DT-2" source="HDhrtGJA4EhIXhscm4DT-7" target="HDhrtGJA4EhIXhscm4DT-9" edge="1">
          <mxGeometry relative="1" as="geometry">
            <mxPoint x="300" y="170" as="targetPoint" />
          </mxGeometry>
        </mxCell>
        <mxCell id="HDhrtGJA4EhIXhscm4DT-10" value="Clic botón &quot;Validar&quot;" style="points=[[0.145,0.145,0],[0.5,0,0],[0.855,0.145,0],[1,0.5,0],[0.855,0.855,0],[0.5,1,0],[0.145,0.855,0],[0,0.5,0]];shape=mxgraph.bpmn.event;html=1;verticalLabelPosition=bottom;labelBackgroundColor=#ffffff;verticalAlign=top;align=center;perimeter=ellipsePerimeter;outlineConnect=0;aspect=fixed;outline=catching;symbol=signal;fillColor=#f5f5f5;fontColor=#333333;strokeColor=#666666;" parent="HDhrtGJA4EhIXhscm4DT-2" vertex="1">
          <mxGeometry x="460" y="145" width="50" height="50" as="geometry" />
        </mxCell>
        <mxCell id="HDhrtGJA4EhIXhscm4DT-13" value="Cargar archivos RIPS" style="points=[[0.25,0,0],[0.5,0,0],[0.75,0,0],[1,0.25,0],[1,0.5,0],[1,0.75,0],[0.75,1,0],[0.5,1,0],[0.25,1,0],[0,0.75,0],[0,0.5,0],[0,0.25,0]];shape=mxgraph.bpmn.task2;whiteSpace=wrap;rectStyle=rounded;size=10;html=1;container=1;expand=0;collapsible=0;taskMarker=user;fillColor=#ffe6cc;strokeColor=#d79b00;" parent="HDhrtGJA4EhIXhscm4DT-2" vertex="1">
          <mxGeometry x="550" y="130" width="120" height="80" as="geometry" />
        </mxCell>
        <mxCell id="HDhrtGJA4EhIXhscm4DT-12" style="edgeStyle=orthogonalEdgeStyle;rounded=0;orthogonalLoop=1;jettySize=auto;html=1;" parent="HDhrtGJA4EhIXhscm4DT-2" source="HDhrtGJA4EhIXhscm4DT-10" target="HDhrtGJA4EhIXhscm4DT-13" edge="1">
          <mxGeometry relative="1" as="geometry">
            <mxPoint x="580" y="170" as="targetPoint" />
          </mxGeometry>
        </mxCell>
        <mxCell id="HDhrtGJA4EhIXhscm4DT-14" style="edgeStyle=orthogonalEdgeStyle;rounded=0;orthogonalLoop=1;jettySize=auto;html=1;" parent="HDhrtGJA4EhIXhscm4DT-2" source="HDhrtGJA4EhIXhscm4DT-13" target="HDhrtGJA4EhIXhscm4DT-25" edge="1">
          <mxGeometry relative="1" as="geometry">
            <mxPoint x="710" y="170" as="targetPoint" />
          </mxGeometry>
        </mxCell>
        <mxCell id="HDhrtGJA4EhIXhscm4DT-71" style="edgeStyle=orthogonalEdgeStyle;rounded=0;orthogonalLoop=1;jettySize=auto;html=1;" parent="HDhrtGJA4EhIXhscm4DT-2" source="HDhrtGJA4EhIXhscm4DT-17" target="HDhrtGJA4EhIXhscm4DT-20" edge="1">
          <mxGeometry relative="1" as="geometry" />
        </mxCell>
        <mxCell id="HDhrtGJA4EhIXhscm4DT-17" value="Rechazar RIPS e insertar error en tabla de errores" style="points=[[0.25,0,0],[0.5,0,0],[0.75,0,0],[1,0.25,0],[1,0.5,0],[1,0.75,0],[0.75,1,0],[0.5,1,0],[0.25,1,0],[0,0.75,0],[0,0.5,0],[0,0.25,0]];shape=mxgraph.bpmn.task2;whiteSpace=wrap;rectStyle=rounded;size=10;html=1;container=1;expand=0;collapsible=0;taskMarker=script;fillColor=#ffe6cc;strokeColor=#d79b00;" parent="HDhrtGJA4EhIXhscm4DT-2" vertex="1">
          <mxGeometry x="1160" y="130" width="120" height="80" as="geometry" />
        </mxCell>
        <mxCell id="HDhrtGJA4EhIXhscm4DT-20" value="Generar informe de errores" style="points=[[0.25,0,0],[0.5,0,0],[0.75,0,0],[1,0.25,0],[1,0.5,0],[1,0.75,0],[0.75,1,0],[0.5,1,0],[0.25,1,0],[0,0.75,0],[0,0.5,0],[0,0.25,0]];shape=mxgraph.bpmn.task2;whiteSpace=wrap;rectStyle=rounded;size=10;html=1;container=1;expand=0;collapsible=0;taskMarker=script;fillColor=#ffe6cc;strokeColor=#d79b00;" parent="HDhrtGJA4EhIXhscm4DT-2" vertex="1">
          <mxGeometry x="1320" y="130" width="120" height="80" as="geometry" />
        </mxCell>
        <mxCell id="HDhrtGJA4EhIXhscm4DT-26" style="edgeStyle=orthogonalEdgeStyle;rounded=0;orthogonalLoop=1;jettySize=auto;html=1;" parent="HDhrtGJA4EhIXhscm4DT-2" source="HDhrtGJA4EhIXhscm4DT-25" target="HDhrtGJA4EhIXhscm4DT-27" edge="1">
          <mxGeometry relative="1" as="geometry" />
        </mxCell>
        <mxCell id="HDhrtGJA4EhIXhscm4DT-28" value="SI" style="edgeLabel;html=1;align=center;verticalAlign=middle;resizable=0;points=[];" parent="HDhrtGJA4EhIXhscm4DT-26" vertex="1" connectable="0">
          <mxGeometry relative="1" as="geometry">
            <mxPoint as="offset" />
          </mxGeometry>
        </mxCell>
        <mxCell id="HDhrtGJA4EhIXhscm4DT-25" value="¿Viene reportado&amp;nbsp;&lt;div&gt;un CUPS de&amp;nbsp;&lt;/div&gt;&lt;div&gt;canasta en&amp;nbsp;&lt;/div&gt;&lt;div&gt;archivo AP?&lt;/div&gt;" style="points=[[0.25,0.25,0],[0.5,0,0],[0.75,0.25,0],[1,0.5,0],[0.75,0.75,0],[0.5,1,0],[0.25,0.75,0],[0,0.5,0]];shape=mxgraph.bpmn.gateway2;html=1;verticalLabelPosition=bottom;labelBackgroundColor=#ffffff;verticalAlign=top;align=center;perimeter=rhombusPerimeter;outlineConnect=0;outline=none;symbol=none;fillColor=#d5e8d4;strokeColor=#82b366;fontSize=10;labelPosition=center;" parent="HDhrtGJA4EhIXhscm4DT-2" vertex="1">
          <mxGeometry x="710" y="145" width="50" height="50" as="geometry" />
        </mxCell>
        <mxCell id="HDhrtGJA4EhIXhscm4DT-52" style="edgeStyle=orthogonalEdgeStyle;rounded=0;orthogonalLoop=1;jettySize=auto;html=1;entryX=0;entryY=0.5;entryDx=0;entryDy=0;entryPerimeter=0;" parent="HDhrtGJA4EhIXhscm4DT-2" source="HDhrtGJA4EhIXhscm4DT-27" target="HDhrtGJA4EhIXhscm4DT-50" edge="1">
          <mxGeometry relative="1" as="geometry">
            <mxPoint x="865" y="325" as="targetPoint" />
            <Array as="points">
              <mxPoint x="865" y="350" />
            </Array>
          </mxGeometry>
        </mxCell>
        <mxCell id="HDhrtGJA4EhIXhscm4DT-55" value="NO" style="edgeLabel;html=1;align=center;verticalAlign=middle;resizable=0;points=[];" parent="HDhrtGJA4EhIXhscm4DT-52" vertex="1" connectable="0">
          <mxGeometry x="0.0923" relative="1" as="geometry">
            <mxPoint y="4" as="offset" />
          </mxGeometry>
        </mxCell>
        <mxCell id="HDhrtGJA4EhIXhscm4DT-27" value="¿Fecha&amp;nbsp;&lt;div&gt;Prestación&amp;nbsp;&lt;div&gt;CUPS&amp;nbsp;&lt;/div&gt;&lt;div&gt;&amp;lt; 01/01/2025?&lt;/div&gt;&lt;/div&gt;" style="points=[[0.25,0.25,0],[0.5,0,0],[0.75,0.25,0],[1,0.5,0],[0.75,0.75,0],[0.5,1,0],[0.25,0.75,0],[0,0.5,0]];shape=mxgraph.bpmn.gateway2;html=1;verticalLabelPosition=top;labelBackgroundColor=#ffffff;verticalAlign=bottom;align=center;perimeter=rhombusPerimeter;outlineConnect=0;outline=none;symbol=none;fillColor=#d5e8d4;strokeColor=#82b366;fontSize=10;labelPosition=center;" parent="HDhrtGJA4EhIXhscm4DT-2" vertex="1">
          <mxGeometry x="840" y="145" width="50" height="50" as="geometry" />
        </mxCell>
        <mxCell id="HDhrtGJA4EhIXhscm4DT-38" style="edgeStyle=orthogonalEdgeStyle;rounded=0;orthogonalLoop=1;jettySize=auto;html=1;entryX=0;entryY=0.5;entryDx=0;entryDy=0;entryPerimeter=0;" parent="HDhrtGJA4EhIXhscm4DT-2" source="HDhrtGJA4EhIXhscm4DT-30" target="HDhrtGJA4EhIXhscm4DT-69" edge="1">
          <mxGeometry relative="1" as="geometry">
            <mxPoint x="1020" y="170" as="targetPoint" />
          </mxGeometry>
        </mxCell>
        <mxCell id="HDhrtGJA4EhIXhscm4DT-39" value="SI" style="edgeLabel;html=1;align=center;verticalAlign=middle;resizable=0;points=[];" parent="HDhrtGJA4EhIXhscm4DT-38" vertex="1" connectable="0">
          <mxGeometry x="-0.16" y="-1" relative="1" as="geometry">
            <mxPoint as="offset" />
          </mxGeometry>
        </mxCell>
        <mxCell id="HDhrtGJA4EhIXhscm4DT-30" value="¿Rips con fecha&amp;nbsp;&lt;div&gt;de prestación&amp;nbsp;&lt;/div&gt;&lt;div&gt;&amp;gt;= 01/01/2025?&lt;/div&gt;" style="points=[[0.25,0.25,0],[0.5,0,0],[0.75,0.25,0],[1,0.5,0],[0.75,0.75,0],[0.5,1,0],[0.25,0.75,0],[0,0.5,0]];shape=mxgraph.bpmn.gateway2;html=1;verticalLabelPosition=top;labelBackgroundColor=#ffffff;verticalAlign=bottom;align=center;perimeter=rhombusPerimeter;outlineConnect=0;outline=none;symbol=none;fillColor=#d5e8d4;strokeColor=#82b366;fontSize=10;labelPosition=center;" parent="HDhrtGJA4EhIXhscm4DT-2" vertex="1">
          <mxGeometry x="960" y="145" width="50" height="50" as="geometry" />
        </mxCell>
        <mxCell id="HDhrtGJA4EhIXhscm4DT-29" style="edgeStyle=orthogonalEdgeStyle;rounded=0;orthogonalLoop=1;jettySize=auto;html=1;" parent="HDhrtGJA4EhIXhscm4DT-2" source="HDhrtGJA4EhIXhscm4DT-27" target="HDhrtGJA4EhIXhscm4DT-30" edge="1">
          <mxGeometry relative="1" as="geometry">
            <mxPoint x="920" y="170" as="targetPoint" />
          </mxGeometry>
        </mxCell>
        <mxCell id="HDhrtGJA4EhIXhscm4DT-35" value="SI" style="edgeLabel;html=1;align=center;verticalAlign=middle;resizable=0;points=[];" parent="HDhrtGJA4EhIXhscm4DT-29" vertex="1" connectable="0">
          <mxGeometry x="-0.12" y="1" relative="1" as="geometry">
            <mxPoint as="offset" />
          </mxGeometry>
        </mxCell>
        <mxCell id="HDhrtGJA4EhIXhscm4DT-36" value="908856&lt;div&gt;906340&lt;/div&gt;&lt;div&gt;906270&lt;/div&gt;&lt;div&gt;906271&lt;/div&gt;" style="text;html=1;align=center;verticalAlign=middle;whiteSpace=wrap;rounded=0;strokeColor=default;dashed=1;fontSize=10;" parent="HDhrtGJA4EhIXhscm4DT-2" vertex="1">
          <mxGeometry x="700" y="30" width="70" height="70" as="geometry" />
        </mxCell>
        <mxCell id="HDhrtGJA4EhIXhscm4DT-41" value="Continuar validaciones de RIPS" style="points=[[0.25,0,0],[0.5,0,0],[0.75,0,0],[1,0.25,0],[1,0.5,0],[1,0.75,0],[0.75,1,0],[0.5,1,0],[0.25,1,0],[0,0.75,0],[0,0.5,0],[0,0.25,0]];shape=mxgraph.bpmn.task2;whiteSpace=wrap;rectStyle=rounded;size=10;html=1;container=1;expand=0;collapsible=0;taskMarker=script;fillColor=#ffe6cc;strokeColor=#d79b00;" parent="HDhrtGJA4EhIXhscm4DT-2" vertex="1">
          <mxGeometry x="675" y="310" width="120" height="80" as="geometry" />
        </mxCell>
        <mxCell id="HDhrtGJA4EhIXhscm4DT-50" value="Validar combinación de archivos RIPS" style="points=[[0.25,0,0],[0.5,0,0],[0.75,0,0],[1,0.25,0],[1,0.5,0],[1,0.75,0],[0.75,1,0],[0.5,1,0],[0.25,1,0],[0,0.75,0],[0,0.5,0],[0,0.25,0]];shape=mxgraph.bpmn.task2;whiteSpace=wrap;rectStyle=rounded;size=10;html=1;container=1;expand=0;collapsible=0;taskMarker=script;fillColor=#ffe6cc;strokeColor=#d79b00;" parent="HDhrtGJA4EhIXhscm4DT-2" vertex="1">
          <mxGeometry x="925" y="310" width="120" height="80" as="geometry" />
        </mxCell>
        <mxCell id="HDhrtGJA4EhIXhscm4DT-61" style="edgeStyle=orthogonalEdgeStyle;rounded=0;orthogonalLoop=1;jettySize=auto;html=1;" parent="HDhrtGJA4EhIXhscm4DT-2" source="HDhrtGJA4EhIXhscm4DT-57" target="HDhrtGJA4EhIXhscm4DT-60" edge="1">
          <mxGeometry relative="1" as="geometry" />
        </mxCell>
        <mxCell id="HDhrtGJA4EhIXhscm4DT-57" value="Aplicar validaciones para asignar clasificación" style="points=[[0.25,0,0],[0.5,0,0],[0.75,0,0],[1,0.25,0],[1,0.5,0],[1,0.75,0],[0.75,1,0],[0.5,1,0],[0.25,1,0],[0,0.75,0],[0,0.5,0],[0,0.25,0]];shape=mxgraph.bpmn.task2;whiteSpace=wrap;rectStyle=rounded;size=10;html=1;container=1;expand=0;collapsible=0;taskMarker=script;fillColor=#ffe6cc;strokeColor=#d79b00;" parent="HDhrtGJA4EhIXhscm4DT-2" vertex="1">
          <mxGeometry x="1400" y="310" width="120" height="80" as="geometry" />
        </mxCell>
        <mxCell id="HDhrtGJA4EhIXhscm4DT-56" style="edgeStyle=orthogonalEdgeStyle;rounded=0;orthogonalLoop=1;jettySize=auto;html=1;" parent="HDhrtGJA4EhIXhscm4DT-2" source="HDhrtGJA4EhIXhscm4DT-50" target="HDhrtGJA4EhIXhscm4DT-62" edge="1">
          <mxGeometry relative="1" as="geometry">
            <mxPoint x="1100" y="350" as="targetPoint" />
          </mxGeometry>
        </mxCell>
        <mxCell id="HDhrtGJA4EhIXhscm4DT-60" value="Generar cuenta medica en EFAC" style="points=[[0.25,0,0],[0.5,0,0],[0.75,0,0],[1,0.25,0],[1,0.5,0],[1,0.75,0],[0.75,1,0],[0.5,1,0],[0.25,1,0],[0,0.75,0],[0,0.5,0],[0,0.25,0]];shape=mxgraph.bpmn.task2;whiteSpace=wrap;rectStyle=rounded;size=10;html=1;container=1;expand=0;collapsible=0;taskMarker=script;fillColor=#ffe6cc;strokeColor=#d79b00;" parent="HDhrtGJA4EhIXhscm4DT-2" vertex="1">
          <mxGeometry x="1560" y="310" width="120" height="80" as="geometry" />
        </mxCell>
        <mxCell id="HDhrtGJA4EhIXhscm4DT-63" style="edgeStyle=orthogonalEdgeStyle;rounded=0;orthogonalLoop=1;jettySize=auto;html=1;entryX=0;entryY=0.5;entryDx=0;entryDy=0;entryPerimeter=0;" parent="HDhrtGJA4EhIXhscm4DT-2" source="HDhrtGJA4EhIXhscm4DT-62" target="HDhrtGJA4EhIXhscm4DT-65" edge="1">
          <mxGeometry relative="1" as="geometry">
            <mxPoint x="1115" y="450" as="targetPoint" />
          </mxGeometry>
        </mxCell>
        <mxCell id="HDhrtGJA4EhIXhscm4DT-64" value="SI" style="edgeLabel;html=1;align=center;verticalAlign=middle;resizable=0;points=[];" parent="HDhrtGJA4EhIXhscm4DT-63" vertex="1" connectable="0">
          <mxGeometry x="-0.0729" relative="1" as="geometry">
            <mxPoint as="offset" />
          </mxGeometry>
        </mxCell>
        <mxCell id="HDhrtGJA4EhIXhscm4DT-62" value="¿Combinación&amp;nbsp;&lt;div&gt;de&amp;nbsp;&lt;span style=&quot;background-color: light-dark(rgb(255, 255, 255), rgb(18, 18, 18)); color: light-dark(rgb(0, 0, 0), rgb(255, 255, 255));&quot;&gt;archivos =&amp;nbsp;&lt;/span&gt;&lt;div&gt;CANASTA?&lt;/div&gt;&lt;/div&gt;" style="points=[[0.25,0.25,0],[0.5,0,0],[0.75,0.25,0],[1,0.5,0],[0.75,0.75,0],[0.5,1,0],[0.25,0.75,0],[0,0.5,0]];shape=mxgraph.bpmn.gateway2;html=1;verticalLabelPosition=top;labelBackgroundColor=#ffffff;verticalAlign=bottom;align=center;perimeter=rhombusPerimeter;outlineConnect=0;outline=none;symbol=none;fillColor=#d5e8d4;strokeColor=#82b366;fontSize=10;labelPosition=center;" parent="HDhrtGJA4EhIXhscm4DT-2" vertex="1">
          <mxGeometry x="1090" y="325" width="50" height="50" as="geometry" />
        </mxCell>
        <mxCell id="HDhrtGJA4EhIXhscm4DT-66" style="edgeStyle=orthogonalEdgeStyle;rounded=0;orthogonalLoop=1;jettySize=auto;html=1;entryX=0;entryY=0.5;entryDx=0;entryDy=0;entryPerimeter=0;" parent="HDhrtGJA4EhIXhscm4DT-2" source="HDhrtGJA4EhIXhscm4DT-65" target="zmFZ9z0Is56uA_JvmbYl-5" edge="1">
          <mxGeometry relative="1" as="geometry" />
        </mxCell>
        <mxCell id="HDhrtGJA4EhIXhscm4DT-67" value="SI" style="edgeLabel;html=1;align=center;verticalAlign=middle;resizable=0;points=[];" parent="HDhrtGJA4EhIXhscm4DT-66" vertex="1" connectable="0">
          <mxGeometry x="-0.16" relative="1" as="geometry">
            <mxPoint as="offset" />
          </mxGeometry>
        </mxCell>
        <mxCell id="HDhrtGJA4EhIXhscm4DT-68" style="edgeStyle=orthogonalEdgeStyle;rounded=0;orthogonalLoop=1;jettySize=auto;html=1;" parent="HDhrtGJA4EhIXhscm4DT-2" source="HDhrtGJA4EhIXhscm4DT-65" target="HDhrtGJA4EhIXhscm4DT-69" edge="1">
          <mxGeometry relative="1" as="geometry">
            <mxPoint x="1225" y="430" as="targetPoint" />
            <Array as="points">
              <mxPoint x="1225" y="250" />
              <mxPoint x="1095" y="250" />
            </Array>
          </mxGeometry>
        </mxCell>
        <mxCell id="zmFZ9z0Is56uA_JvmbYl-2" value="NO" style="edgeLabel;html=1;align=center;verticalAlign=middle;resizable=0;points=[];" parent="HDhrtGJA4EhIXhscm4DT-68" vertex="1" connectable="0">
          <mxGeometry x="0.2231" y="-1" relative="1" as="geometry">
            <mxPoint as="offset" />
          </mxGeometry>
        </mxCell>
        <mxCell id="HDhrtGJA4EhIXhscm4DT-65" value="¿CUPS&amp;nbsp;&lt;div&gt;autorizado?&lt;/div&gt;" style="points=[[0.25,0.25,0],[0.5,0,0],[0.75,0.25,0],[1,0.5,0],[0.75,0.75,0],[0.5,1,0],[0.25,0.75,0],[0,0.5,0]];shape=mxgraph.bpmn.gateway2;html=1;verticalLabelPosition=top;labelBackgroundColor=#ffffff;verticalAlign=bottom;align=center;perimeter=rhombusPerimeter;outlineConnect=0;outline=none;symbol=none;fillColor=#d5e8d4;strokeColor=#82b366;fontSize=10;labelPosition=center;" parent="HDhrtGJA4EhIXhscm4DT-2" vertex="1">
          <mxGeometry x="1200" y="325" width="50" height="50" as="geometry" />
        </mxCell>
        <mxCell id="HDhrtGJA4EhIXhscm4DT-70" style="edgeStyle=orthogonalEdgeStyle;rounded=0;orthogonalLoop=1;jettySize=auto;html=1;" parent="HDhrtGJA4EhIXhscm4DT-2" source="HDhrtGJA4EhIXhscm4DT-69" target="HDhrtGJA4EhIXhscm4DT-17" edge="1">
          <mxGeometry relative="1" as="geometry" />
        </mxCell>
        <mxCell id="HDhrtGJA4EhIXhscm4DT-69" value="" style="points=[[0.25,0.25,0],[0.5,0,0],[0.75,0.25,0],[1,0.5,0],[0.75,0.75,0],[0.5,1,0],[0.25,0.75,0],[0,0.5,0]];shape=mxgraph.bpmn.gateway2;html=1;verticalLabelPosition=bottom;labelBackgroundColor=#ffffff;verticalAlign=top;align=center;perimeter=rhombusPerimeter;outlineConnect=0;outline=end;symbol=general;fillColor=#d5e8d4;strokeColor=#82b366;" parent="HDhrtGJA4EhIXhscm4DT-2" vertex="1">
          <mxGeometry x="1070" y="145" width="50" height="50" as="geometry" />
        </mxCell>
        <mxCell id="HDhrtGJA4EhIXhscm4DT-72" style="edgeStyle=orthogonalEdgeStyle;rounded=0;orthogonalLoop=1;jettySize=auto;html=1;entryX=0;entryY=0.5;entryDx=0;entryDy=0;entryPerimeter=0;" parent="HDhrtGJA4EhIXhscm4DT-2" source="HDhrtGJA4EhIXhscm4DT-20" target="HDhrtGJA4EhIXhscm4DT-74" edge="1">
          <mxGeometry relative="1" as="geometry">
            <mxPoint x="1480" y="170" as="targetPoint" />
          </mxGeometry>
        </mxCell>
        <mxCell id="HDhrtGJA4EhIXhscm4DT-74" value="" style="points=[[0.145,0.145,0],[0.5,0,0],[0.855,0.145,0],[1,0.5,0],[0.855,0.855,0],[0.5,1,0],[0.145,0.855,0],[0,0.5,0]];shape=mxgraph.bpmn.event;html=1;verticalLabelPosition=bottom;labelBackgroundColor=#ffffff;verticalAlign=top;align=center;perimeter=ellipsePerimeter;outlineConnect=0;aspect=fixed;outline=end;symbol=error;fillColor=#f8cecc;strokeColor=#b85450;" parent="HDhrtGJA4EhIXhscm4DT-2" vertex="1">
          <mxGeometry x="1480" y="145" width="50" height="50" as="geometry" />
        </mxCell>
        <mxCell id="zmFZ9z0Is56uA_JvmbYl-6" style="edgeStyle=orthogonalEdgeStyle;rounded=0;orthogonalLoop=1;jettySize=auto;html=1;" parent="HDhrtGJA4EhIXhscm4DT-2" source="zmFZ9z0Is56uA_JvmbYl-5" target="HDhrtGJA4EhIXhscm4DT-57" edge="1">
          <mxGeometry relative="1" as="geometry" />
        </mxCell>
        <mxCell id="zmFZ9z0Is56uA_JvmbYl-5" value="" style="points=[[0.25,0.25,0],[0.5,0,0],[0.75,0.25,0],[1,0.5,0],[0.75,0.75,0],[0.5,1,0],[0.25,0.75,0],[0,0.5,0]];shape=mxgraph.bpmn.gateway2;html=1;verticalLabelPosition=bottom;labelBackgroundColor=#ffffff;verticalAlign=top;align=center;perimeter=rhombusPerimeter;outlineConnect=0;outline=end;symbol=general;fillColor=#d5e8d4;strokeColor=#82b366;" parent="HDhrtGJA4EhIXhscm4DT-2" vertex="1">
          <mxGeometry x="1310" y="325" width="50" height="50" as="geometry" />
        </mxCell>
        <mxCell id="zmFZ9z0Is56uA_JvmbYl-7" style="edgeStyle=orthogonalEdgeStyle;rounded=0;orthogonalLoop=1;jettySize=auto;html=1;" parent="HDhrtGJA4EhIXhscm4DT-2" source="zmFZ9z0Is56uA_JvmbYl-3" target="zmFZ9z0Is56uA_JvmbYl-5" edge="1">
          <mxGeometry relative="1" as="geometry" />
        </mxCell>
        <mxCell id="zmFZ9z0Is56uA_JvmbYl-3" value="Asignar ámbito en maestro y detalle identificado" style="points=[[0.25,0,0],[0.5,0,0],[0.75,0,0],[1,0.25,0],[1,0.5,0],[1,0.75,0],[0.75,1,0],[0.5,1,0],[0.25,1,0],[0,0.75,0],[0,0.5,0],[0,0.25,0]];shape=mxgraph.bpmn.task2;whiteSpace=wrap;rectStyle=rounded;size=10;html=1;container=1;expand=0;collapsible=0;taskMarker=script;fillColor=#ffe6cc;strokeColor=#d79b00;" parent="HDhrtGJA4EhIXhscm4DT-2" vertex="1">
          <mxGeometry x="1165" y="440" width="120" height="80" as="geometry" />
        </mxCell>
        <mxCell id="zmFZ9z0Is56uA_JvmbYl-1" style="edgeStyle=orthogonalEdgeStyle;rounded=0;orthogonalLoop=1;jettySize=auto;html=1;" parent="HDhrtGJA4EhIXhscm4DT-2" source="HDhrtGJA4EhIXhscm4DT-62" target="zmFZ9z0Is56uA_JvmbYl-3" edge="1">
          <mxGeometry relative="1" as="geometry">
            <mxPoint x="1115" y="480" as="targetPoint" />
            <Array as="points">
              <mxPoint x="1115" y="480" />
            </Array>
          </mxGeometry>
        </mxCell>
        <mxCell id="zmFZ9z0Is56uA_JvmbYl-4" value="NO" style="edgeLabel;html=1;align=center;verticalAlign=middle;resizable=0;points=[];" parent="zmFZ9z0Is56uA_JvmbYl-1" vertex="1" connectable="0">
          <mxGeometry x="-0.1385" relative="1" as="geometry">
            <mxPoint as="offset" />
          </mxGeometry>
        </mxCell>
        <mxCell id="zmFZ9z0Is56uA_JvmbYl-10" value="Fin proceso" style="points=[[0.145,0.145,0],[0.5,0,0],[0.855,0.145,0],[1,0.5,0],[0.855,0.855,0],[0.5,1,0],[0.145,0.855,0],[0,0.5,0]];shape=mxgraph.bpmn.event;html=1;verticalLabelPosition=bottom;labelBackgroundColor=#ffffff;verticalAlign=top;align=center;perimeter=ellipsePerimeter;outlineConnect=0;aspect=fixed;outline=end;symbol=terminate;fillColor=#f8cecc;strokeColor=#b85450;" parent="HDhrtGJA4EhIXhscm4DT-2" vertex="1">
          <mxGeometry x="1720" y="325" width="50" height="50" as="geometry" />
        </mxCell>
        <mxCell id="zmFZ9z0Is56uA_JvmbYl-8" style="edgeStyle=orthogonalEdgeStyle;rounded=0;orthogonalLoop=1;jettySize=auto;html=1;" parent="HDhrtGJA4EhIXhscm4DT-2" source="HDhrtGJA4EhIXhscm4DT-60" target="zmFZ9z0Is56uA_JvmbYl-10" edge="1">
          <mxGeometry relative="1" as="geometry">
            <mxPoint x="1715" y="350" as="targetPoint" />
          </mxGeometry>
        </mxCell>
        <mxCell id="3i6kgNWMvXPRFTRG9guR-2" value="&lt;font style=&quot;vertical-align: inherit;&quot;&gt;&lt;font style=&quot;vertical-align: inherit;&quot;&gt;Fin&lt;/font&gt;&lt;/font&gt;" style="points=[[0.145,0.145,0],[0.5,0,0],[0.855,0.145,0],[1,0.5,0],[0.855,0.855,0],[0.5,1,0],[0.145,0.855,0],[0,0.5,0]];shape=mxgraph.bpmn.event;html=1;verticalLabelPosition=bottom;labelBackgroundColor=#ffffff;verticalAlign=top;align=center;perimeter=ellipsePerimeter;outlineConnect=0;aspect=fixed;outline=end;symbol=terminate2;fillColor=#f8cecc;strokeColor=#b85450;" vertex="1" parent="HDhrtGJA4EhIXhscm4DT-2">
          <mxGeometry x="710" y="430" width="50" height="50" as="geometry" />
        </mxCell>
        <mxCell id="3i6kgNWMvXPRFTRG9guR-1" style="edgeStyle=orthogonalEdgeStyle;rounded=0;orthogonalLoop=1;jettySize=auto;html=1;" edge="1" parent="HDhrtGJA4EhIXhscm4DT-2" source="HDhrtGJA4EhIXhscm4DT-41" target="3i6kgNWMvXPRFTRG9guR-2">
          <mxGeometry relative="1" as="geometry">
            <mxPoint x="735" y="440" as="targetPoint" />
          </mxGeometry>
        </mxCell>
      </root>
    </mxGraphModel>
  </diagram>
</mxfile>
